<svg id="Layer_1" data-name="Layer 1" xmlns="http://www.w3.org/2000/svg" viewBox="0 0 157.28 25.72"><defs><style>.cls-1{fill:#fff;}.cls-1,.cls-2{fill-rule:evenodd;}.cls-2,.cls-3{fill:#f3603c;}.cls-3{isolation:isolate;opacity:0.5;}</style></defs><path class="cls-1" d="M1009.31,552.63a12.09,12.09,0,0,0,3.49-.46,7.5,7.5,0,0,0,2.58-1.27,6.85,6.85,0,0,0,1.74-2,8.64,8.64,0,0,0,1-2.58,14.57,14.57,0,0,0,.3-3.06V527.2h-4.09v1.88h-.07a7.72,7.72,0,0,0-2.55-1.61,8.26,8.26,0,0,0-3-.56,8.37,8.37,0,0,0-4.4,1.17,7.94,7.94,0,0,0-3,3.23,9.79,9.79,0,0,0-1.09,4.65,9.32,9.32,0,0,0,1.14,4.65,7.91,7.91,0,0,0,3.12,3.11,9.18,9.18,0,0,0,4.47,1.08,7.17,7.17,0,0,0,5.42-2.19h.07v1.9a4.08,4.08,0,0,1-1.4,3.16,5.7,5.7,0,0,1-3.93,1.25,9.72,9.72,0,0,1-3.05-.43,20.27,20.27,0,0,1-3-1.34l-1,3.62a12.49,12.49,0,0,0,3.38,1.38A15.64,15.64,0,0,0,1009.31,552.63Zm-85.19-16.45v8.94H920v-9.34q0-5.12-3.55-5.12a3.82,3.82,0,0,0-3.09,1.48,6.22,6.22,0,0,0-1.2,4v8.92h-4.1V527.2h4.1v2.47h.05a7.62,7.62,0,0,1,2.55-2,6.87,6.87,0,0,1,3-.71,5.56,5.56,0,0,1,5.33,3h.07a7.38,7.38,0,0,1,2.77-2.22,8.52,8.52,0,0,1,3.63-.76,5.73,5.73,0,0,1,4.65,2c1.08,1.29,1.62,3.25,1.62,5.86v10.38h-4.09v-9.34q0-5.12-3.5-5.12a3.65,3.65,0,0,0-3,1.48A6.27,6.27,0,0,0,924.12,536.18Zm28.53,6.52a6.73,6.73,0,0,1-5.69,2.69,9.15,9.15,0,0,1-3.44-.65,8,8,0,0,1-2.74-1.84A8.61,8.61,0,0,1,939,540a11,11,0,0,1,0-7.5,8.94,8.94,0,0,1,1.81-3,8.18,8.18,0,0,1,2.73-1.92,8.34,8.34,0,0,1,3.42-.7,6.85,6.85,0,0,1,5.52,2.42h.08V527.2h4.09v17.9H952.7v-2.4Zm-5-1a4.84,4.84,0,0,1-3.7-1.51,5.42,5.42,0,0,1-1.43-3.9,5.62,5.62,0,0,1,1.47-4.06,4.91,4.91,0,0,1,3.68-1.53,4.66,4.66,0,0,1,3.62,1.6,5.75,5.75,0,0,1,1.44,4,5.37,5.37,0,0,1-1.48,3.9A4.82,4.82,0,0,1,947.61,541.66ZM977,534.57v10.55h-4.09v-9.5a9.86,9.86,0,0,0-.25-2.36,3.66,3.66,0,0,0-.77-1.54,3.15,3.15,0,0,0-1.21-.81,4.77,4.77,0,0,0-1.65-.25,4.27,4.27,0,0,0-3.37,1.43,5.9,5.9,0,0,0-1.26,4v9h-4.1V527.2h4.1v2.45h0a7.57,7.57,0,0,1,2.68-2,7.93,7.93,0,0,1,3.31-.7,6.25,6.25,0,0,1,4.82,1.87Q977,530.67,977,534.57ZM988,545.39a6.73,6.73,0,0,0,5.69-2.69h0v2.4h3.92V527.2h-4.1v2.15h-.07a6.85,6.85,0,0,0-5.52-2.42,8.34,8.34,0,0,0-3.42.7,8.18,8.18,0,0,0-2.73,1.92,8.78,8.78,0,0,0-1.81,3,11,11,0,0,0,0,7.5,8.45,8.45,0,0,0,1.81,2.9,7.92,7.92,0,0,0,2.74,1.84A9.15,9.15,0,0,0,988,545.39Zm-3-5.24a5.17,5.17,0,0,0,7.3,0,5.37,5.37,0,0,0,1.48-3.9,5.75,5.75,0,0,0-1.44-4,4.66,4.66,0,0,0-3.62-1.6,4.9,4.9,0,0,0-3.68,1.53,5.62,5.62,0,0,0-1.47,4.06A5.42,5.42,0,0,0,985,540.15Zm20.83-.54a5,5,0,0,0,3.66,1.41,4.78,4.78,0,0,0,3.63-1.48,5.24,5.24,0,0,0,1.41-3.76,5.16,5.16,0,0,0-8.73-3.65,5.62,5.62,0,0,0,0,7.48Zm24.32,5.78a10.07,10.07,0,0,0,4.41-.91,8.62,8.62,0,0,0,3.12-2.48l-2.86-2.45a5.41,5.41,0,0,1-4.46,2.11,5.15,5.15,0,0,1-3.33-1.09,5,5,0,0,1-1.76-3h13a10.58,10.58,0,0,0,.1-1.63,10,10,0,0,0-1-4.65,7.81,7.81,0,0,0-3-3.2,9.41,9.41,0,0,0-8-.5,8.1,8.1,0,0,0-2.77,1.88,8.59,8.59,0,0,0-1.83,2.92,10.32,10.32,0,0,0-.66,3.74,9.74,9.74,0,0,0,1.2,4.87,8.24,8.24,0,0,0,3.27,3.25A9.66,9.66,0,0,0,1030.12,545.39Zm-4.81-11.13h8.94a4.83,4.83,0,0,0-1.51-2.63,4.17,4.17,0,0,0-2.84-1,4.51,4.51,0,0,0-4.59,3.6Z" transform="translate(-881.08 -526.91)"/><path class="cls-2" d="M887,529.94a3,3,0,1,1-3-3A3,3,0,0,1,887,529.94Zm0,10.89a3,3,0,1,1-3-3A3,3,0,0,1,887,540.83Zm7.7-7.87a3,3,0,1,0-3-3A3,3,0,0,0,894.7,533Z" transform="translate(-881.08 -526.91)"/><ellipse class="cls-3" cx="13.62" cy="14.04" rx="2.96" ry="3.03"/></svg>